<mxfile host="65bd71144e">
    <diagram id="JAU-MWYbB0M_8U72C_Jo" name="第 1 页">
        <mxGraphModel dx="2942" dy="2712" grid="1" gridSize="10" guides="1" tooltips="1" connect="1" arrows="1" fold="1" page="1" pageScale="1" pageWidth="827" pageHeight="1169" math="0" shadow="0">
            <root>
                <mxCell id="0"/>
                <mxCell id="1" parent="0"/>
                <mxCell id="2" value="" style="rounded=0;whiteSpace=wrap;html=1;" vertex="1" parent="1">
                    <mxGeometry x="-679" y="-210" width="1920" height="1080" as="geometry"/>
                </mxCell>
                <mxCell id="5" value="&lt;font style=&quot;font-size: 80px&quot;&gt;导航栏&lt;/font&gt;" style="rounded=0;whiteSpace=wrap;html=1;" vertex="1" parent="1">
                    <mxGeometry x="-679" y="-210" width="299" height="1080" as="geometry"/>
                </mxCell>
                <mxCell id="6" value="&lt;font style=&quot;font-size: 80px&quot;&gt;&lt;font style=&quot;font-size: 80px&quot;&gt;页&lt;/font&gt;头&lt;/font&gt;" style="rounded=0;whiteSpace=wrap;html=1;" vertex="1" parent="1">
                    <mxGeometry x="-380" y="-210" width="1620" height="120" as="geometry"/>
                </mxCell>
                <mxCell id="7" value="主要内容显示区域" style="rounded=0;whiteSpace=wrap;html=1;fontSize=80;" vertex="1" parent="1">
                    <mxGeometry x="-380" y="-90" width="1620" height="960" as="geometry"/>
                </mxCell>
            </root>
        </mxGraphModel>
    </diagram>
</mxfile>